<svg xmlns="http://www.w3.org/2000/svg" width="51" height="51" viewBox="0 0 51 51">
    <path fill="#FFF" fill-rule="nonzero" d="M31.847 25.053c0-.386-.054-.762-.116-1.13 5.394-1.29 11.198-4.073 17.775-9.58-.17-.325-.353-.624-.528-.802L39.847 4.41c-2.66 7.43-5.987 12.486-9.696 16.2a7.07 7.07 0 0 0-1.193-1.095c2.835-4.608 5.002-10.4 5.36-19.438-.18-.036-.365-.077-.502-.077h-13.37c3.93 7.366 5.028 13.147 5.03 18.311-.144-.007-.276-.04-.42-.04-.387 0-.76.053-1.131.113C22.63 12.994 19.853 7.188 14.348.61c-.335.172-.637.355-.82.536l-9.116 9.118c7.43 2.66 12.484 5.99 16.198 9.701a6.77 6.77 0 0 0-1.087 1.183C14.912 18.311 9.12 16.141.077 15.783a2.74 2.74 0 0 0-.077.508v13.36c7.366-3.93 13.15-5.03 18.317-5.033-.01.15-.047.283-.047.435 0 .387.054.76.116 1.13-5.391 1.288-11.2 4.066-17.78 9.574.17.332.353.634.53.81l9.124 9.125c2.662-7.427 5.995-12.484 9.703-16.193.359.402.745.776 1.186 1.088-2.835 4.61-5.008 10.404-5.366 19.445.186.041.371.08.513.08h13.363c-3.933-7.368-5.033-13.152-5.038-18.314.152.008.29.044.44.044.384 0 .755-.054 1.124-.113 1.299 5.389 4.08 11.198 9.58 17.772.335-.17.639-.353.824-.533l9.116-9.118c-7.433-2.66-12.49-5.99-16.203-9.699a7.06 7.06 0 0 0 1.098-1.188c4.605 2.833 10.404 5 19.44 5.356.039-.176.075-.361.075-.498v-13.37c-7.363 3.932-13.147 5.03-18.31 5.033.006-.15.042-.284.042-.43z"/>
</svg>
