<svg xmlns="http://www.w3.org/2000/svg" width="140" height="26" viewBox="0 0 140 26">
    <g fill="none" fill-rule="evenodd">
        <g fill="#00ABEB" fill-rule="nonzero">
            <path d="M.123.151h10.193l3.93 15.593L18.176.151h10.192v25.573h-6.263V6.14l-4.912 19.585h-5.772L6.51 6.14v19.585H.123zM62.877.151h14.614c2.456 0 4.298.624 5.65 1.871 1.35 1.248 1.964 2.745 1.964 4.491 0 1.497-.491 2.87-1.35 3.867-.615.749-1.474 1.248-2.702 1.747 1.842.499 3.193 1.247 4.052 2.245.86 1.123 1.228 2.495 1.228 4.117 0 1.372-.245 2.495-.86 3.618a7.88 7.88 0 0 1-2.455 2.495c-.614.374-1.597.623-2.948.873-1.72.25-2.947.374-3.438.374h-13.51V.151h-.245zm7.86 10.105h3.438c1.229 0 2.088-.25 2.58-.624.49-.374.736-.998.736-1.871 0-.749-.245-1.373-.737-1.747-.49-.374-1.35-.624-2.456-.624H70.86v4.866h-.123zm0 10.104h3.93c1.35 0 2.333-.25 2.824-.748.491-.5.86-1.123.86-1.996 0-.749-.246-1.373-.86-1.872-.491-.499-1.473-.748-2.824-.748h-3.93v5.364zM90.263.151h20.877V5.64H98.123v4.117h12.158v5.239H98.123v4.99h13.509v5.863H90.386V.151zM115.807.151h7.737v8.982h8.474V.15h7.86v25.573h-7.86v-10.23h-8.474V25.85h-7.737z"/>
        </g>
        <path fill="#FFF" d="M32.912 13c0-7.11 5.65-12.849 12.65-12.849S58.21 5.889 58.21 13c0 7.11-5.65 12.849-12.65 12.849S32.912 20.111 32.912 13z"/>
        <path fill="#00ABEB" d="M40.035 24.602h11.053c-1.72.873-3.562 1.247-5.527 1.247-1.965 0-3.807-.499-5.526-1.247zM36.474 21.857h18.175c-.86.873-1.72 1.622-2.702 2.12H39.175a8.9 8.9 0 0 1-2.701-2.12zM34.509 19.362H56.49c-.368.749-.86 1.372-1.35 1.996H35.981c-.49-.624-.982-1.247-1.473-1.996zM33.404 16.742h24.192a34.875 34.875 0 0 1-.736 1.996H34.263c-.368-.623-.614-1.372-.86-1.996zM32.912 14.123h25.176c0 .623-.123 1.122-.246 1.746H33.281c-.123-.499-.246-1.123-.369-1.746zM33.035 11.753h25.176c0 .374.122.873.122 1.247v.125H33.035V13a2.158 2.158 0 0 1 0-1.247zM33.526 9.258h24.07c.123.374.246.748.246 1.122H33.158l.368-1.122zM34.632 6.638h21.86c.122.25.368.624.49.873H34.14c.123-.25.246-.624.492-.873zM36.596 4.018h17.93l.737.749H35.86l.736-.749zM40.158 1.398h10.807c.246.125.614.25.86.5H39.298c.246-.125.614-.375.86-.5z"/>
        <path fill="#FFF" d="M45.561.151v10.23c4.053 0 7.246 3.118 7.492 7.235.245 4.241-3.07 7.983-7.246 8.108V15.37c-4.175.125-7.737-3.243-7.737-7.36C37.947 3.77 41.386.151 45.561.151z"/>
        <path fill="#919295" d="M45.561 1.398h-4.175C42.614.65 43.965.151 45.561.151v1.247zM40.772 1.897h4.79v2.121H38.93c.491-.748 1.105-1.497 1.842-2.12zM38.684 4.642h6.877v1.996h-7.49c.122-.749.368-1.372.613-1.996zM38.07 7.262h7.491v1.996h-7.368c-.123-.375-.123-.874-.123-1.373-.123-.124-.123-.374 0-.623zM38.316 10.13h7.245v.25c1.597 0 3.07.5 4.299 1.373H39.175c-.368-.5-.614-.998-.86-1.622zM39.912 12.875h11.176c.368.374.737.873.982 1.372H41.632a9.297 9.297 0 0 1-1.72-1.372zM45.807 15.62h6.877c.123.374.246.748.246 1.122h-7.123V15.62zM45.807 18.489h7.246c0 .25 0 .624-.123.873h-7.123v-.873zM45.807 21.233h6.632l-.369.749h-6.263v-.749zM45.807 24.103h4.421c-.246.124-.368.249-.614.499h-3.807v-.5z"/>
    </g>
</svg>
